<svg width="183" height="52" viewBox="0 0 183 52" fill="none" xmlns="http://www.w3.org/2000/svg">
<path d="M50.6104 41.1056V17.4805H60.5712C61.3374 17.4805 62.1143 17.5763 62.9018 17.7679C63.7106 17.9381 64.4449 18.3 65.1047 18.8533C65.7857 19.3854 66.3285 20.1942 66.7329 21.2797C67.1585 22.3652 67.3714 23.8018 67.3714 25.5897C67.3714 27.3775 67.1585 28.8248 66.7329 29.9316C66.3285 31.0383 65.7964 31.879 65.1366 32.4537C64.4768 33.0284 63.7638 33.4115 62.9976 33.603C62.2313 33.7946 61.4864 33.8903 60.7628 33.8903C60.3797 33.8903 59.9327 33.8797 59.4219 33.8584C58.9111 33.8159 58.3896 33.7626 57.8575 33.6988C57.3467 33.6349 56.8678 33.5817 56.4209 33.5392C55.9739 33.4753 55.6121 33.4221 55.3354 33.3795V41.1056H50.6104ZM55.3354 29.6442H60.0285C60.5819 29.6442 61.0501 29.5165 61.4332 29.2611C61.8376 28.9844 62.1356 28.5588 62.3271 27.9841C62.5187 27.3881 62.6145 26.6006 62.6145 25.6216C62.6145 24.6638 62.508 23.9082 62.2952 23.3549C62.1036 22.7802 61.8163 22.3652 61.4332 22.1098C61.0714 21.8544 60.6351 21.7266 60.1242 21.7266H55.3354V29.6442ZM70.2158 41.1056V23.9615H73.8553L74.9408 26.5794C75.558 25.7919 76.2497 25.1214 77.0159 24.568C77.8034 24.0147 78.7293 23.738 79.7935 23.738C80.0276 23.738 80.2617 23.7486 80.4958 23.7699C80.7513 23.7912 80.9854 23.8337 81.1982 23.8976V28.7503C80.879 28.7077 80.5384 28.6758 80.1766 28.6545C79.8361 28.612 79.5062 28.5907 79.1869 28.5907C78.5697 28.5907 78.0056 28.6652 77.4948 28.8142C77.0053 28.9419 76.5477 29.1441 76.122 29.4207C75.7176 29.6762 75.3239 30.0167 74.9408 30.4424V41.1056H70.2158ZM91.0585 41.2652C89.6538 41.2652 88.4513 41.1268 87.4509 40.8502C86.4506 40.5522 85.6311 40.0627 84.9926 39.3816C84.3754 38.7005 83.9178 37.7959 83.6198 36.6679C83.3431 35.5398 83.2048 34.1458 83.2048 32.4856C83.2048 30.7403 83.3431 29.3037 83.6198 28.1756C83.9178 27.0263 84.3754 26.1324 84.9926 25.4939C85.6311 24.8341 86.4506 24.3765 87.4509 24.1211C88.4725 23.8444 89.6751 23.706 91.0585 23.706C92.4845 23.706 93.6977 23.8444 94.6981 24.1211C95.6984 24.3978 96.5072 24.866 97.1244 25.5258C97.7629 26.1643 98.2205 27.0582 98.4972 28.2076C98.7952 29.3356 98.9442 30.7616 98.9442 32.4856C98.9442 34.1883 98.8058 35.6143 98.5291 36.7637C98.2524 37.8917 97.8055 38.7856 97.1883 39.4454C96.571 40.1052 95.7516 40.5735 94.73 40.8502C93.7296 41.1268 92.5058 41.2652 91.0585 41.2652ZM91.0585 37.498C91.6332 37.498 92.1121 37.4447 92.4952 37.3383C92.8996 37.2319 93.2188 37.0191 93.4529 36.6998C93.7084 36.3593 93.8999 35.8485 94.0276 35.1674C94.1553 34.4863 94.2192 33.5924 94.2192 32.4856C94.2192 31.3576 94.1553 30.4637 94.0276 29.8039C93.8999 29.1228 93.7084 28.6226 93.4529 28.3033C93.2188 27.9628 92.8996 27.7393 92.4952 27.6329C92.1121 27.5265 91.6332 27.4733 91.0585 27.4733C90.5051 27.4733 90.0263 27.5265 89.6219 27.6329C89.2388 27.7393 88.9195 27.9628 88.6641 28.3033C88.4087 28.6226 88.2171 29.1228 88.0894 29.8039C87.983 30.4637 87.9298 31.3576 87.9298 32.4856C87.9298 33.5924 87.983 34.4863 88.0894 35.1674C88.2171 35.8485 88.4087 36.3593 88.6641 36.6998C88.9195 37.0191 89.2388 37.2319 89.6219 37.3383C90.0263 37.4447 90.5051 37.498 91.0585 37.498ZM105.719 41.2971C104.42 41.2971 103.367 40.914 102.558 40.1478C101.749 39.3816 101.345 38.3174 101.345 36.9552V35.4228C101.345 34.1245 101.802 33.0603 102.718 32.2302C103.633 31.3789 105.059 30.9532 106.996 30.9532H111.37V29.7719C111.37 29.2398 111.274 28.8035 111.082 28.463C110.891 28.1012 110.529 27.8457 109.997 27.6968C109.486 27.5265 108.698 27.4414 107.634 27.4414H102.494V24.6957C103.324 24.4403 104.282 24.2169 105.367 24.0253C106.474 23.8337 107.804 23.738 109.358 23.738C110.784 23.738 111.997 23.9082 112.998 24.2488C114.019 24.5893 114.786 25.1746 115.296 26.0047C115.828 26.8348 116.095 27.9841 116.095 29.4527V41.1056H112.359L111.593 39.2858C111.444 39.4561 111.189 39.6476 110.827 39.8605C110.465 40.0733 110.018 40.2968 109.486 40.5309C108.975 40.7437 108.39 40.9246 107.73 41.0736C107.091 41.2226 106.421 41.2971 105.719 41.2971ZM108.113 38.0088C108.326 38.0088 108.56 37.9875 108.815 37.9449C109.092 37.8811 109.369 37.8172 109.646 37.7534C109.943 37.6682 110.21 37.5937 110.444 37.5299C110.699 37.4447 110.901 37.3703 111.05 37.3064C111.221 37.2425 111.327 37.2 111.37 37.1787V33.188L108.496 33.3795C107.666 33.4434 107.049 33.6562 106.645 34.0181C106.261 34.3799 106.07 34.8694 106.07 35.4866V36.189C106.07 36.6147 106.155 36.9659 106.325 37.2425C106.517 37.5192 106.762 37.7214 107.06 37.8491C107.379 37.9556 107.73 38.0088 108.113 38.0088ZM126.145 41.1056C124.825 41.1056 123.75 40.914 122.92 40.5309C122.112 40.1478 121.526 39.5093 121.164 38.6154C120.803 37.7214 120.643 36.5189 120.686 35.0077L120.845 27.7606H118.163V24.7277L121.005 23.9615L121.643 19.1726H125.379V23.9615H129.401V27.7606H125.379V34.9758C125.379 35.4441 125.421 35.8272 125.506 36.1251C125.592 36.4231 125.709 36.6679 125.858 36.8594C126.028 37.0297 126.219 37.1574 126.432 37.2425C126.645 37.3277 126.858 37.3809 127.071 37.4022L129.242 37.5937V41.1056H126.145ZM138.554 41.1056C137.234 41.1056 136.159 40.914 135.329 40.5309C134.52 40.1478 133.935 39.5093 133.573 38.6154C133.211 37.7214 133.052 36.5189 133.094 35.0077L133.254 27.7606H130.572V24.7277L133.413 23.9615L134.052 19.1726H137.787V23.9615H141.81V27.7606H137.787V34.9758C137.787 35.4441 137.83 35.8272 137.915 36.1251C138 36.4231 138.117 36.6679 138.266 36.8594C138.436 37.0297 138.628 37.1574 138.841 37.2425C139.054 37.3277 139.267 37.3809 139.479 37.4022L141.65 37.5937V41.1056H138.554ZM145.024 21.4393C144.577 21.4393 144.354 21.2265 144.354 20.8008V17.6721C144.354 17.2251 144.577 17.0016 145.024 17.0016H148.663C148.855 17.0016 149.004 17.0655 149.11 17.1932C149.217 17.3209 149.27 17.4805 149.27 17.6721V20.8008C149.27 21.2265 149.068 21.4393 148.663 21.4393H145.024ZM144.449 41.1056V23.9615H149.174V41.1056H144.449ZM152.805 41.1056V23.9615H156.444L157.53 26.5794C158.147 25.7919 158.839 25.1214 159.605 24.568C160.393 24.0147 161.318 23.738 162.383 23.738C162.617 23.738 162.851 23.7486 163.085 23.7699C163.34 23.7912 163.574 23.8337 163.787 23.8976V28.7503C163.468 28.7077 163.127 28.6758 162.766 28.6545C162.425 28.612 162.095 28.5907 161.776 28.5907C161.159 28.5907 160.595 28.6652 160.084 28.8142C159.594 28.9419 159.137 29.1441 158.711 29.4207C158.307 29.6762 157.913 30.0167 157.53 30.4424V41.1056H152.805ZM173.52 41.2652C171.626 41.2652 170.114 41.0204 168.986 40.5309C167.858 40.0201 167.039 39.1262 166.528 37.8491C166.039 36.5721 165.794 34.8056 165.794 32.5495C165.794 30.2295 166.028 28.4311 166.496 27.154C166.964 25.877 167.752 24.9831 168.859 24.4723C169.966 23.9614 171.466 23.706 173.36 23.706C175.063 23.706 176.425 23.8763 177.447 24.2169C178.468 24.5574 179.203 25.1533 179.65 26.0047C180.118 26.856 180.352 28.0586 180.352 29.6123C180.352 30.7616 180.118 31.6768 179.65 32.3579C179.203 33.0177 178.564 33.4966 177.734 33.7946C176.904 34.0713 175.925 34.2096 174.797 34.2096H170.487C170.53 35.0822 170.657 35.7846 170.87 36.3167C171.104 36.8275 171.519 37.2 172.115 37.4341C172.732 37.6469 173.616 37.7534 174.765 37.7534H179.777V40.5309C178.947 40.7012 178.032 40.8714 177.032 41.0417C176.053 41.1907 174.882 41.2652 173.52 41.2652ZM170.423 31.4001H174.318C174.957 31.4001 175.425 31.2724 175.723 31.017C176.021 30.7616 176.17 30.304 176.17 29.6442C176.17 29.027 176.074 28.5375 175.882 28.1756C175.691 27.7925 175.393 27.5265 174.988 27.3775C174.584 27.2072 174.041 27.1221 173.36 27.1221C172.637 27.1221 172.062 27.2498 171.636 27.5052C171.211 27.7393 170.902 28.165 170.71 28.7822C170.519 29.3995 170.423 30.2721 170.423 31.4001Z" fill="white"/>
<path d="M16.1979 41.3826C24.7109 43.2744 30.7804 39.0179 32.751 36.6532C17.6167 36.6532 11.2057 32.1865 9.89199 29.9531C8.9461 30.2684 3.19195 36.3904 0.433105 39.412C3.58607 38.4661 12.2567 40.3316 16.1979 41.3826Z" fill="#FFB16C"/>
<path d="M6.34508 20.8883C9.81333 32.239 24.3432 34.5512 31.1747 34.2884C33.6972 34.3293 34.5903 33.7799 34.7216 33.5002L36.6922 29.9531C37.9534 21.1248 26.9705 13.4001 21.3215 10.6412L3.98035 -3.05176e-05C3.19197 12.6118 5.16256 18.5236 6.34508 20.8883Z" fill="#FFB16C"/>
<circle cx="44.1805" cy="27.5884" r="2.36472" fill="#FFB16C"/>
<path d="M42.9981 31.1355C43.6549 33.2375 43.2346 38.2297 36.298 41.3826C31.3843 45.5205 29.4934 47.6432 28.9723 48.4901C28.9165 48.6196 28.8623 48.7465 28.8098 48.8709C28.8098 48.8001 28.8581 48.6757 28.9723 48.4901C31.5718 42.4669 37.7508 31.1355 42.9981 31.1355Z" fill="#FFB16C"/>
</svg>
