<svg width="47" height="49" viewBox="0 0 47 49" fill="none" xmlns="http://www.w3.org/2000/svg">
<path d="M16.1979 41.3826C24.7109 43.2744 30.7804 39.0179 32.751 36.6532C17.6167 36.6532 11.2057 32.1865 9.89199 29.9531C8.9461 30.2684 3.19195 36.3904 0.433105 39.412C3.58607 38.4661 12.2567 40.3316 16.1979 41.3826Z" fill="#FFB16C"/>
<path d="M6.34508 20.8883C9.81333 32.239 24.3432 34.5512 31.1747 34.2884C33.6972 34.3293 34.5903 33.7799 34.7216 33.5002L36.6922 29.9531C37.9534 21.1248 26.9705 13.4001 21.3215 10.6412L3.98035 -3.05176e-05C3.19197 12.6118 5.16256 18.5236 6.34508 20.8883Z" fill="#FFB16C"/>
<circle cx="44.1805" cy="27.5884" r="2.36472" fill="#FFB16C"/>
<path d="M42.9981 31.1355C43.6549 33.2375 43.2346 38.2297 36.298 41.3826C31.3843 45.5205 29.4934 47.6432 28.9723 48.4901C28.9165 48.6196 28.8623 48.7465 28.8098 48.8709C28.8098 48.8001 28.8581 48.6757 28.9723 48.4901C31.5718 42.4669 37.7508 31.1355 42.9981 31.1355Z" fill="#FFB16C"/>
</svg>
